<?xml version="1.0" encoding="UTF-8"?>
<!DOCTYPE svg PUBLIC "-//W3C//DTD SVG 1.1//EN" "http://www.w3.org/Graphics/SVG/1.1/DTD/svg11.dtd">
<svg xmlns="http://www.w3.org/2000/svg" version="1.1" width="107px" height="105px" style="shape-rendering:geometricPrecision; text-rendering:geometricPrecision; image-rendering:optimizeQuality; fill-rule:evenodd; clip-rule:evenodd" xmlns:xlink="http://www.w3.org/1999/xlink">
<g><path style="opacity:0.943" fill="#ff4c41" d="M 68.5,6.5 C 70.4817,6.99543 72.4817,7.49543 74.5,8C 84.1547,14.3158 91.6547,22.4825 97,32.5C 98.6476,40.22 99.981,48.22 101,56.5C 101.333,56.8333 101.667,57.1667 102,57.5C 102.192,55.4233 102.692,53.4233 103.5,51.5C 106.447,59.8194 105.613,67.8194 101,75.5C 99.6015,76.0509 98.2682,76.3842 97,76.5C 95.2727,80.7811 93.4394,84.9478 91.5,89C 90.1667,89.3333 88.8333,89.6667 87.5,90C 78.5878,98.1259 68.2544,102.959 56.5,104.5C 51.8333,104.5 47.1667,104.5 42.5,104.5C 38.6747,103.158 34.6747,101.991 30.5,101C 30.8333,100.667 31.1667,100.333 31.5,100C 24.9902,97.4686 18.9902,94.1352 13.5,90C 6.58421,82.6633 1.91754,74.1633 -0.5,64.5C -0.5,59.5 -0.5,54.5 -0.5,49.5C 2.16667,48.8333 2.16667,48.1667 -0.5,47.5C -0.5,44.8333 -0.5,42.1667 -0.5,39.5C 0.248534,38.469 0.915201,37.3024 1.5,36C 3.10799,35.342 4.27465,35.842 5,37.5C 6.98318,34.9321 6.81651,32.5988 4.5,30.5C 7.99674,21.3379 13.9967,14.3379 22.5,9.5C 24.467,10.6838 26.1336,10.3505 27.5,8.5C 28.4916,8.67158 29.1583,8.33825 29.5,7.5C 30.8333,7.16667 30.8333,6.83333 29.5,6.5C 35.9602,2.8683 42.9602,1.70164 50.5,3C 49.3044,3.65431 49.3044,4.15431 50.5,4.5C 56.8248,1.9101 62.8248,2.57676 68.5,6.5 Z M 62.5,5.5 C 59.3926,5.64877 56.3926,5.14877 53.5,4C 56.7201,3.67981 59.7201,4.17981 62.5,5.5 Z M 62.5,5.5 C 64.5,5.83333 66.5,6.16667 68.5,6.5C 68.5,6.83333 68.5,7.16667 68.5,7.5C 66.1016,7.74061 64.1016,7.07394 62.5,5.5 Z"/></g>
<g><path style="opacity:0.162" fill="#fe4a3e" d="M 29.5,6.5 C 29.5,6.83333 29.5,7.16667 29.5,7.5C 28.5084,7.32842 27.8417,7.66175 27.5,8.5C 26.7611,8.63101 26.0944,8.46434 25.5,8C 26.5634,6.81181 27.8967,6.31181 29.5,6.5 Z"/></g>
<g><path style="opacity:1" fill="#fff6f6" d="M 45.5,13.5 C 58.6287,11.4885 69.462,15.4885 78,25.5C 78.6667,26.8333 78.6667,28.1667 78,29.5C 73.4612,31.1857 69.2945,33.519 65.5,36.5C 60.295,30.0601 53.6283,27.2268 45.5,28C 42.7513,29.1227 40.2513,30.6227 38,32.5C 36.4941,30.8258 34.6607,29.8258 32.5,29.5C 32.719,30.675 32.3857,31.675 31.5,32.5C 29.5,29.8333 27.5,27.1667 25.5,24.5C 26.6507,23.269 27.8173,23.269 29,24.5C 29.2511,22.567 29.7511,20.7337 30.5,19C 33.1667,18.6667 35.8333,18.3333 38.5,18C 37.8333,17.3333 37.1667,16.6667 36.5,16C 39.678,15.3405 42.678,14.5072 45.5,13.5 Z"/></g>
<g><path style="opacity:1" fill="#ff574b" d="M 53.5,18.5 C 54.9221,18.7496 55.9221,19.583 56.5,21C 54.5106,21.5192 53.5106,20.6859 53.5,18.5 Z"/></g>
<g><path style="opacity:1" fill="#ff685c" d="M 59.5,19.5 C 62.0118,20.2162 62.0118,21.2162 59.5,22.5C 58.4376,21.5754 58.4376,20.5754 59.5,19.5 Z"/></g>
<g><path style="opacity:1" fill="#ff6053" d="M 49.5,19.5 C 50.3764,19.3691 51.0431,19.7025 51.5,20.5C 50.7542,21.7362 50.4208,23.0695 50.5,24.5C 48.2495,24.8186 46.2495,24.3186 44.5,23C 46.596,22.2635 48.2627,21.0968 49.5,19.5 Z"/></g>
<g><path style="opacity:1" fill="#ff584d" d="M 58.5,23.5 C 62.0749,24.2068 62.2416,25.2068 59,26.5C 57.3167,25.8235 57.1501,24.8235 58.5,23.5 Z"/></g>
<g><path style="opacity:1" fill="#ff8e86" d="M 37.5,24.5 C 40.0118,25.2162 40.0118,26.2162 37.5,27.5C 36.913,26.7666 36.913,25.7666 37.5,24.5 Z"/></g>
<g><path style="opacity:1" fill="#ffa29c" d="M 21.5,31.5 C 21.5,33.8333 21.5,36.1667 21.5,38.5C 20.776,36.7816 20.1094,34.9483 19.5,33C 20.0442,32.2828 20.7109,31.7828 21.5,31.5 Z"/></g>
<g><path style="opacity:1" fill="#fff7f6" d="M 34.5,55.5 C 32.8008,55.6602 31.1341,55.4935 29.5,55C 23.7445,50.9892 21.0778,45.4892 21.5,38.5C 21.5,36.1667 21.5,33.8333 21.5,31.5C 22.8227,30.3922 24.3227,30.3922 26,31.5C 27.6537,32.6533 29.1537,33.9866 30.5,35.5C 31.1667,35.1667 31.8333,34.8333 32.5,34.5C 35.9513,36.0659 37.9513,38.7326 38.5,42.5C 40.6317,43.5984 42.7984,44.5984 45,45.5C 45.4561,46.7441 44.9561,47.5774 43.5,48C 46.4529,47.6198 49.4529,47.6198 52.5,48C 51.4495,46.6152 50.1161,45.6152 48.5,45C 49,44.8333 49.5,44.6667 50,44.5C 56.8138,47.5443 63.6471,50.3777 70.5,53C 73.1884,55.6884 75.8551,58.3551 78.5,61C 81.5813,66.3782 82.0813,71.8782 80,77.5C 78.887,76.2396 78.7203,75.073 79.5,74C 78.3333,73.5 77.5,72.6667 77,71.5C 74.9093,72.4996 73.2426,71.8329 72,69.5C 71.0754,70.0465 70.2421,70.7132 69.5,71.5C 70.154,73.1151 70.654,74.7818 71,76.5C 74.059,77.5574 76.559,79.3907 78.5,82C 76.6798,83.8067 75.5131,85.9733 75,88.5C 61.1094,96.837 46.6094,97.6704 31.5,91C 27.1012,88.5414 23.1012,85.5414 19.5,82C 18.1667,81 18.1667,80 19.5,79C 23.216,75.76 27.3827,73.26 32,71.5C 34.1423,73.9685 36.6423,76.1351 39.5,78C 42.481,79.4872 45.481,80.8206 48.5,82C 51.634,82.7901 54.634,82.4568 57.5,81C 59.578,78.589 61.2447,75.9223 62.5,73C 62,71.5 61.5,70 61,68.5C 57.758,65.7945 54.258,63.4612 50.5,61.5C 52.7995,60.7221 54.9662,59.7221 57,58.5C 58.5694,61.2657 60.7361,61.9324 63.5,60.5C 61.9068,59.1696 60.2402,57.8363 58.5,56.5C 55.5788,57.4066 52.5788,57.7399 49.5,57.5C 49.5,58.8333 49.5,60.1667 49.5,61.5C 45.0935,59.4431 40.4269,57.9431 35.5,57C 34.944,56.6174 34.6107,56.1174 34.5,55.5 Z"/></g>
<g><path style="opacity:1" fill="#ff8d85" d="M 29.5,45.5 C 31.0847,46.0024 31.5847,47.0024 31,48.5C 29.9614,47.7562 29.4614,46.7562 29.5,45.5 Z"/></g>
<g><path style="opacity:1" fill="#ff574c" d="M 33.5,37.5 C 35.4646,37.9483 35.7979,38.9483 34.5,40.5C 33.6143,39.675 33.281,38.675 33.5,37.5 Z"/></g>
<g><path style="opacity:1" fill="#ff4e43" d="M 26.5,36.5 C 28.9732,36.9473 29.1399,37.9473 27,39.5C 26.5172,38.552 26.3505,37.552 26.5,36.5 Z"/></g>
<g><path style="opacity:1" fill="#ffa097" d="M 32.5,49.5 C 33.3764,49.3691 34.0431,49.7025 34.5,50.5C 33.485,53.1677 31.8183,53.8344 29.5,52.5C 30.9935,51.8589 31.9935,50.8589 32.5,49.5 Z"/></g>
<g><path style="opacity:1" fill="#ff6458" d="M 53.5,51.5 C 53.56,50.9569 53.8933,50.6236 54.5,50.5C 55.5,51.8333 56.5,53.1667 57.5,54.5C 56.635,55.5827 55.635,55.7494 54.5,55C 54.3474,53.7913 54.0141,52.6246 53.5,51.5 Z"/></g>
<g><path style="opacity:1" fill="#ff746a" d="M 34.5,55.5 C 34.3893,54.8826 34.056,54.3826 33.5,54C 36.2272,53.1816 38.8938,53.3483 41.5,54.5C 39.2573,55.4742 36.924,55.8076 34.5,55.5 Z"/></g>
<g><path style="opacity:1" fill="#ff6257" d="M 45.5,55.5 C 46.3764,55.3691 47.0431,55.7025 47.5,56.5C 45.1916,57.8734 44.5249,57.5401 45.5,55.5 Z"/></g>
<g><path style="opacity:1" fill="#ff8a80" d="M 48.5,85.5 C 49.1894,84.2264 50.0228,84.2264 51,85.5C 51.3143,87.8689 52.1476,90.0356 53.5,92C 53.1667,92.5 52.8333,93 52.5,93.5C 51.2993,91.0905 49.6326,89.0905 47.5,87.5C 48.0253,86.8076 48.6919,86.3076 49.5,86C 49.2716,85.6012 48.9382,85.4346 48.5,85.5 Z"/></g>
<g><path style="opacity:1" fill="#ff5348" d="M 59.5,87.5 C 61.1789,87.8923 62.8455,88.3923 64.5,89C 61.9634,91.2094 60.2967,90.7094 59.5,87.5 Z"/></g>
</svg>
